<mxfile host="app.diagrams.net" modified="2022-02-03T04:19:13.600Z" agent="5.0 (Macintosh; Intel Mac OS X 10_15_7) AppleWebKit/537.36 (KHTML, like Gecko) Chrome/97.0.4692.99 Safari/537.36" etag="LEPWPQCB3dQdFGmy_buk" version="16.5.3" type="github">
  <diagram id="R2lEEEUBdFMjLlhIrx00" name="Page-1">
    <mxGraphModel dx="845" dy="550" grid="1" gridSize="10" guides="1" tooltips="1" connect="1" arrows="1" fold="1" page="1" pageScale="1" pageWidth="850" pageHeight="1100" math="0" shadow="0" extFonts="Permanent Marker^https://fonts.googleapis.com/css?family=Permanent+Marker">
      <root>
        <mxCell id="0" />
        <mxCell id="1" parent="0" />
        <mxCell id="96kQTQZCwIRgIAH9to5d-1" value="member" style="rounded=0;whiteSpace=wrap;html=1;" vertex="1" parent="1">
          <mxGeometry x="40" y="80" width="100" height="40" as="geometry" />
        </mxCell>
        <mxCell id="96kQTQZCwIRgIAH9to5d-5" value="" style="endArrow=none;html=1;rounded=0;entryX=0;entryY=0.5;entryDx=0;entryDy=0;" edge="1" parent="1" target="96kQTQZCwIRgIAH9to5d-9">
          <mxGeometry relative="1" as="geometry">
            <mxPoint x="140" y="99.57" as="sourcePoint" />
            <mxPoint x="260" y="99.57" as="targetPoint" />
          </mxGeometry>
        </mxCell>
        <mxCell id="96kQTQZCwIRgIAH9to5d-9" value="&lt;font style=&quot;font-size: 10px&quot;&gt;registers&lt;br&gt;&amp;nbsp;for&amp;nbsp;&lt;/font&gt;" style="shape=rhombus;perimeter=rhombusPerimeter;whiteSpace=wrap;html=1;align=center;" vertex="1" parent="1">
          <mxGeometry x="230" y="85" width="60" height="30" as="geometry" />
        </mxCell>
        <mxCell id="96kQTQZCwIRgIAH9to5d-11" value="room" style="rounded=0;whiteSpace=wrap;html=1;" vertex="1" parent="1">
          <mxGeometry x="360" y="200" width="100" height="40" as="geometry" />
        </mxCell>
        <mxCell id="96kQTQZCwIRgIAH9to5d-14" value="" style="endArrow=none;html=1;rounded=0;fontSize=10;entryX=0.5;entryY=1;entryDx=0;entryDy=0;" edge="1" parent="1" target="96kQTQZCwIRgIAH9to5d-11">
          <mxGeometry width="50" height="50" relative="1" as="geometry">
            <mxPoint x="410" y="280" as="sourcePoint" />
            <mxPoint x="460" y="270" as="targetPoint" />
          </mxGeometry>
        </mxCell>
        <mxCell id="96kQTQZCwIRgIAH9to5d-15" value="" style="endArrow=none;html=1;rounded=0;fontSize=10;" edge="1" parent="1">
          <mxGeometry width="50" height="50" relative="1" as="geometry">
            <mxPoint x="410" y="270" as="sourcePoint" />
            <mxPoint x="450" y="270" as="targetPoint" />
          </mxGeometry>
        </mxCell>
        <mxCell id="96kQTQZCwIRgIAH9to5d-16" value="unique ID #" style="ellipse;whiteSpace=wrap;html=1;align=center;fontSize=10;" vertex="1" parent="1">
          <mxGeometry x="434" y="250" width="66" height="40" as="geometry" />
        </mxCell>
        <mxCell id="96kQTQZCwIRgIAH9to5d-18" value="" style="endArrow=none;html=1;rounded=0;fontSize=10;" edge="1" parent="1">
          <mxGeometry width="50" height="50" relative="1" as="geometry">
            <mxPoint x="380" y="280" as="sourcePoint" />
            <mxPoint x="410.0000000000001" y="279.57" as="targetPoint" />
          </mxGeometry>
        </mxCell>
        <mxCell id="96kQTQZCwIRgIAH9to5d-17" value="max capacity" style="ellipse;whiteSpace=wrap;html=1;align=center;fontSize=10;" vertex="1" parent="1">
          <mxGeometry x="320" y="260" width="66" height="40" as="geometry" />
        </mxCell>
        <mxCell id="96kQTQZCwIRgIAH9to5d-19" value="session" style="rounded=0;whiteSpace=wrap;html=1;" vertex="1" parent="1">
          <mxGeometry x="360" y="80" width="100" height="40" as="geometry" />
        </mxCell>
        <mxCell id="96kQTQZCwIRgIAH9to5d-20" value="0...N" style="text;html=1;strokeColor=none;fillColor=none;align=center;verticalAlign=middle;whiteSpace=wrap;rounded=0;fontSize=10;" vertex="1" parent="1">
          <mxGeometry x="130" y="75" width="60" height="30" as="geometry" />
        </mxCell>
        <mxCell id="96kQTQZCwIRgIAH9to5d-21" value="" style="endArrow=none;html=1;rounded=0;fontSize=10;exitX=1;exitY=0.5;exitDx=0;exitDy=0;entryX=0;entryY=0.5;entryDx=0;entryDy=0;" edge="1" parent="1" source="96kQTQZCwIRgIAH9to5d-9" target="96kQTQZCwIRgIAH9to5d-19">
          <mxGeometry width="50" height="50" relative="1" as="geometry">
            <mxPoint x="290" y="180" as="sourcePoint" />
            <mxPoint x="340" y="130" as="targetPoint" />
          </mxGeometry>
        </mxCell>
        <mxCell id="96kQTQZCwIRgIAH9to5d-22" value="1...N" style="text;html=1;strokeColor=none;fillColor=none;align=center;verticalAlign=middle;whiteSpace=wrap;rounded=0;fontSize=10;" vertex="1" parent="1">
          <mxGeometry x="310" y="75" width="60" height="30" as="geometry" />
        </mxCell>
        <mxCell id="96kQTQZCwIRgIAH9to5d-23" value="unique ID #" style="ellipse;whiteSpace=wrap;html=1;align=center;fontSize=10;" vertex="1" parent="1">
          <mxGeometry x="540" y="100" width="66" height="40" as="geometry" />
        </mxCell>
        <mxCell id="96kQTQZCwIRgIAH9to5d-24" value="" style="endArrow=none;html=1;rounded=0;fontSize=10;entryX=0.5;entryY=1;entryDx=0;entryDy=0;startArrow=none;" edge="1" parent="1" source="96kQTQZCwIRgIAH9to5d-25" target="96kQTQZCwIRgIAH9to5d-19">
          <mxGeometry width="50" height="50" relative="1" as="geometry">
            <mxPoint x="410" y="160" as="sourcePoint" />
            <mxPoint x="430" y="140" as="targetPoint" />
          </mxGeometry>
        </mxCell>
        <mxCell id="96kQTQZCwIRgIAH9to5d-26" value="" style="endArrow=none;html=1;rounded=0;fontSize=10;entryX=0.5;entryY=1;entryDx=0;entryDy=0;" edge="1" parent="1" target="96kQTQZCwIRgIAH9to5d-25">
          <mxGeometry width="50" height="50" relative="1" as="geometry">
            <mxPoint x="410" y="160" as="sourcePoint" />
            <mxPoint x="410" y="120" as="targetPoint" />
          </mxGeometry>
        </mxCell>
        <mxCell id="96kQTQZCwIRgIAH9to5d-25" value="&lt;font style=&quot;font-size: 9px&quot;&gt;are held in&amp;nbsp;&lt;/font&gt;" style="rhombus;whiteSpace=wrap;html=1;fontSize=10;" vertex="1" parent="1">
          <mxGeometry x="380" y="140" width="60" height="40" as="geometry" />
        </mxCell>
        <mxCell id="96kQTQZCwIRgIAH9to5d-27" value="" style="endArrow=none;html=1;rounded=0;fontSize=10;entryX=0.5;entryY=1;entryDx=0;entryDy=0;startArrow=none;exitX=0.5;exitY=0;exitDx=0;exitDy=0;" edge="1" parent="1" source="96kQTQZCwIRgIAH9to5d-11" target="96kQTQZCwIRgIAH9to5d-25">
          <mxGeometry width="50" height="50" relative="1" as="geometry">
            <mxPoint x="420" y="150" as="sourcePoint" />
            <mxPoint x="420" y="130" as="targetPoint" />
          </mxGeometry>
        </mxCell>
        <mxCell id="96kQTQZCwIRgIAH9to5d-28" value="1...1" style="text;html=1;strokeColor=none;fillColor=none;align=center;verticalAlign=middle;whiteSpace=wrap;rounded=0;fontSize=9;rotation=90;" vertex="1" parent="1">
          <mxGeometry x="386" y="173" width="60" height="30" as="geometry" />
        </mxCell>
        <mxCell id="96kQTQZCwIRgIAH9to5d-29" value="0...N" style="text;html=1;strokeColor=none;fillColor=none;align=center;verticalAlign=middle;whiteSpace=wrap;rounded=0;fontSize=9;rotation=90;" vertex="1" parent="1">
          <mxGeometry x="387" y="117" width="60" height="30" as="geometry" />
        </mxCell>
      </root>
    </mxGraphModel>
  </diagram>
</mxfile>
